# xmcd CD database file
#
# Track frame offsets:
#	150
#	16075
#	33888
#	60573
#	73631
#	88222
#	108602
#	124285
#	149926
#	162297
#
# Disc length: 2443 seconds
#
# Revision: 1
# Processed by: cddbd v1.5.2PL0 Copyright (c) Steve Scherf et al.
# Submitted via: CDex 1.51
#
DISCID=8f09890a
DTITLE=Space Chaser - Watch The Skies
DYEAR=2014
DGENRE=Thrash Metal
TTITLE0=Interstellar Overlords
TTITLE1=Loaded To The Top
TTITLE2=Watch The Skies
TTITLE3=Saucer Attack
TTITLE4=Waste Crawler
TTITLE5=Space Chaser
TTITLE6=Decapitron
TTITLE7=Predator
TTITLE8=Thrashold
TTITLE9=Undead Revenge
EXTD=YEAR: 2014
EXTT0=
EXTT1=
EXTT2=
EXTT3=
EXTT4=
EXTT5=
EXTT6=
EXTT7=
EXTT8=
EXTT9=
PLAYORDER=
